<svg class="logo__stod2-bio" width="104" height="28" xmlns="http://www.w3.org/2000/svg" xmlns:xlink="http://www.w3.org/1999/xlink" viewBox="0 0 369.84 100"><defs><style>.cls-bio-1{fill:url(#linear-gradient-bio);}.cls-bio-2{fill:url(#linear-gradient-bio-2);}.cls-bio-3{fill:#f1eef3;}</style><linearGradient id="linear-gradient-bio" x1="88.63" y1="2.59" x2="88.63" y2="97.01" gradientUnits="userSpaceOnUse"><stop offset="0" stop-color="#44403e"></stop><stop offset="1" stop-color="#2b2825"></stop></linearGradient><linearGradient id="linear-gradient-bio-2" x1="273.62" y1="8.75" x2="273.62" y2="93.51" gradientUnits="userSpaceOnUse"><stop offset="0" stop-color="#9f1916"></stop><stop offset="1" stop-color="#56110d"></stop></linearGradient></defs><title>St2Bio</title><g id="Layer_2" data-name="Layer 2"><g id="Layer_1-2" data-name="Layer 1"><path class="logo__fill" d="M177.25.11H108.37c-1.24,0-1.16,1.15,0,1.64l.37.15a20.48,20.48,0,0,1,9.13,29.28c-6.61,11.57-20,32.41-25.12,40.33-1.62,2.51-.53,3.19,1.08,3.19h27.08c4.31,0,5.39,1.07,2.82,4.74l-.29.43-12.08,17c-1.68,2.39-1.49,3.13,1.11,3.13h64.8ZM0,94.83A5.18,5.18,0,0,0,5.17,100H38.29c3,0,3.58-.27,5.11-2.39,12.24-17,40.81-56.81,43.45-61.26C90.23,30.66,88,22.23,75.21,26.5A181.23,181.23,0,0,0,51.82,36.8l-.51.26c-2.38,1.21-2.17.3-1.33-1.27A192.66,192.66,0,0,1,60.14,19.28,47.19,47.19,0,0,1,85.45,2.15c2.28-.64,1.32-2-.89-2H5.18A5.17,5.17,0,0,0,0,5.28Z"></path><path class="cls-bio-2" d="M366.58,0 C368.327059,0 369.753824,2.18553633 369.83624,4.92909373 L369.84,5.18 L369.84,94.82 C369.84,97.5958824 368.464619,99.8630623 366.728769,99.9940245 L366.57,100 L177.4,100 L177.4,0 L366.58,0 Z M319.28,28.3 C311.575789,24.3397899 302.434211,24.3397899 294.73,28.3 C291.266928,30.2441615 288.46108,33.1753333 286.67,36.72 C284.69911,40.7145628 283.724684,45.1269283 283.83,49.58 C283.729541,54.055048 284.703425,58.4889641 286.67,62.51 C288.445691,66.0833919 291.253639,69.0411428 294.73,71 C302.434211,74.9602101 311.575789,74.9602101 319.28,71 C322.737963,69.0365971 325.525387,66.0784435 327.28,62.51 C329.223606,58.4823788 330.183252,54.0508698 330.08,49.58 C330.18829,45.1311201 329.228108,40.7211417 327.28,36.72 C325.511437,33.1792135 322.725741,30.2472681 319.28,28.3 Z M276.18,25.92 L265.78,25.92 L265.78,73.36 L276.18,73.36 L276.18,25.92 Z M241.73,25.92 L219.88,25.92 L219.88,73.36 L242.41,73.36 C247.53,73.36 251.53,72.19 254.53,69.86 C257.472016,67.6097107 259.138659,64.0713553 259,60.37 C259.086431,57.727372 258.283576,55.1321781 256.72,53 C255.109546,50.9377443 252.863303,49.4648559 250.33,48.81 C254.854542,47.2897705 257.854189,42.9912232 257.72,38.22 C257.847691,34.696704 256.241239,31.334363 253.42,29.22 C250.56,27.02 246.663333,25.92 241.73,25.92 Z M307.02,33.4492798 C310.581931,33.4492798 313.979343,34.9486129 316.38,37.58 C318.62,40.34 319.74,44.34 319.74,49.58 C319.74,54.82 318.62,58.84 316.38,61.64 L316.38,61.64 L316.38,61.67 C313.997315,64.3328526 310.59323,65.8547985 307.02,65.8547985 C303.44677,65.8547985 300.042685,64.3328526 297.66,61.67 C295.42,58.8566667 294.3,54.8266667 294.3,49.58 C294.3,44.3333333 295.42,40.3333333 297.66,37.58 C300.060657,34.9486129 303.458069,33.4492798 307.02,33.4492798 Z M241.19,53.24 C243.99,53.24 246.02,53.7266667 247.28,54.7 C248.628758,55.8596248 249.336073,57.5981315 249.18,59.37 C249.324581,61.0266258 248.687659,62.6506483 247.467391,63.7664939 L247.28,63.93 L247.29,63.93 C246.061429,64.8442857 244.188866,65.314127 241.594568,65.3568006 L241.2,65.36 L230,65.36 L230,53.24 L241.19,53.24 Z M240,33.92 C242.7,33.92 244.69,34.38 246,35.32 C247.356477,36.3318666 248.109061,37.9612105 248,39.65 C248.11222,41.3114682 247.355284,42.9123875 246,43.88 C244.736842,44.7389474 242.875346,45.1910249 240.415512,45.2362327 L240,45.24 L230,45.24 L230,33.92 L240,33.92 Z M284,11.4 L274.64,11.4 L267.78,21.86 L273.98,21.86 L284,11.4 Z M320,11.4 L310.66,11.4 L303.8,21.86 L310,21.86 L320,11.4 Z" fill="#FFF"></path></g></g></svg>