<svg class="logo__stod2-sport" width="145" height="28" xmlns="http://www.w3.org/2000/svg" xmlns:xlink="http://www.w3.org/1999/xlink" viewBox="0 0 552.83 105.14"><defs><style>.cls-1{fill:url(#linear-gradient);}.cls-2{fill:url(#linear-gradient-2);}</style><linearGradient id="linear-gradient" x1="93.18" y1="0.88" x2="93.18" y2="99.35" gradientUnits="userSpaceOnUse"><stop offset="0" stop-color="#3c3c3c"></stop><stop offset="1" stop-color="#232323"></stop></linearGradient><linearGradient id="linear-gradient-2" x1="369.57" x2="369.57" y2="105.14" gradientUnits="userSpaceOnUse"><stop offset="0" stop-color="#d20d52"></stop><stop offset="1" stop-color="#a01a59"></stop></linearGradient></defs><g id="Layer_2" data-name="Layer 2"><g id="Layer_1-2" data-name="Layer 1"><path class="cls-1 logo__fill" d="M186.37.12H113.94c-1.3,0-1.22,1.2,0,1.72l.39.15a21.55,21.55,0,0,1,9.6,30.8c-7,12.16-21,34.07-26.42,42.4-1.7,2.64-.55,3.35,1.15,3.35l28.46,0c4.54,0,5.67,1.14,3,5l-.31.46-12.69,17.89c-1.77,2.51-1.58,3.29,1.16,3.29h68.14ZM0,99.7a5.44,5.44,0,0,0,5.44,5.44H40.26c3.13,0,3.76-.28,5.37-2.51C58.5,84.72,88.54,42.9,91.32,38.22c3.55-6,1.18-14.85-12.25-10.35A189.54,189.54,0,0,0,54.48,38.69l-.54.28c-2.5,1.27-2.28.31-1.39-1.35,2.53-4.49,7.43-13,10.69-17.35a49.63,49.63,0,0,1,26.6-18c2.4-.67,1.39-2.14-.93-2.15H5.44A5.43,5.43,0,0,0,0,5.55Z"></path><path class="cls-2 cls-sport" d="M546.6,105.14c3.44,0,6.23-2.44,6.23-5.45V5.44c0-3-2.79-5.44-6.22-5.44H186.32V105.14ZM233.88,78.27V25.72h36.24v8.93h-25v12.4h23.47v9H245.1V69.34h25v8.93Zm49.42-.93a25.94,25.94,0,0,1-9.11-4.46l3.69-8.27a28.91,28.91,0,0,0,17,5.32q5,0,7.72-1.59a5,5,0,0,0,2.69-4.47,4.39,4.39,0,0,0-2.47-3.94,32.17,32.17,0,0,0-8.67-2.77,46.26,46.26,0,0,1-11-3.43,14.62,14.62,0,0,1-6-4.95,13.16,13.16,0,0,1-1.88-7.27A14.56,14.56,0,0,1,277.84,33a17.3,17.3,0,0,1,7.35-5.86,26.63,26.63,0,0,1,10.92-2.11,35.75,35.75,0,0,1,10.77,1.63,21.92,21.92,0,0,1,8.27,4.43l-3.69,8.26a24.58,24.58,0,0,0-15.28-5.31,12.58,12.58,0,0,0-7.08,1.77,5.5,5.5,0,0,0-2.66,4.8,4.39,4.39,0,0,0,1,2.95,8.18,8.18,0,0,0,3.35,2.1,42.63,42.63,0,0,0,6.72,1.81q10.11,2.22,14.58,5.76a11.68,11.68,0,0,1,4.46,9.67,13.84,13.84,0,0,1-5.75,11.69q-5.76,4.32-16,4.32A41.13,41.13,0,0,1,283.3,77.34Zm38.64-51.62h23.84q8.7,0,13.54,4.21t4.84,11.43a14.39,14.39,0,0,1-4.87,11.41Q354.42,57,345.78,57H333.45V78.27H321.94ZM344.3,48.23q9,0,9-6.79t-9-6.87H333.45V48.23Zm34.95,27.42a22.19,22.19,0,0,1-8.93-9.41,31.06,31.06,0,0,1-3.14-14.32,30.62,30.62,0,0,1,3.14-14.25,22.27,22.27,0,0,1,8.93-9.33,29.75,29.75,0,0,1,27.2,0,22.09,22.09,0,0,1,8.85,9.33,30.86,30.86,0,0,1,3.1,14.25,31.31,31.31,0,0,1-3.1,14.32,22,22,0,0,1-8.85,9.41,29.84,29.84,0,0,1-27.2,0Zm24-10.37Q407,60.63,407,51.92c0-5.81-1.24-10.23-3.72-13.29s-5.95-4.57-10.37-4.57S385,35.58,382.5,38.63s-3.73,7.48-3.73,13.29S380,62.24,382.5,65.31s5.94,4.62,10.37,4.62A12.57,12.57,0,0,0,403.24,65.28Zm65.57,13H456.63l-6.71-17.49a5.08,5.08,0,0,0-2.48-2.88,9.44,9.44,0,0,0-4.17-.82h-7.45V78.27H424.45V25.72h23.4q9.15,0,13.88,4t4.72,11.44a14.75,14.75,0,0,1-2.77,9,15.07,15.07,0,0,1-7.93,5.38q4.65,1,6.71,6.43Zm-22.66-30q5,0,7.24-1.66a6,6,0,0,0,2.28-5.2,6,6,0,0,0-2.28-5.2q-2.29-1.66-7.24-1.67H435.67V48.3Zm38.23,30V35.09H467.93V25.72H512.5v9.37H496.05V78.27Z"></path></g></g></svg>