<svg class="logo__golfstodin" width="120" height="28" xmlns="http://www.w3.org/2000/svg" xmlns:xlink="http://www.w3.org/1999/xlink" viewBox="0 0 428.47 100"><defs><style>.cls-golf-1{fill:url(#linear-gradient-golf);}.cls-golf-2{fill:url(#linear-gradient-golf-2);}.cls-golf-3{fill:#fff;}</style><linearGradient id="linear-gradient-golf" x1="88.66" y1="-15.96" x2="88.66" y2="83.79" gradientTransform="matrix(1, 0, 0, 1, -0.1, -0.39)" gradientUnits="userSpaceOnUse"><stop offset="0" stop-color="#44403e"></stop><stop offset="1" stop-color="#2b2825"></stop></linearGradient><linearGradient id="linear-gradient-golf-2" x1="303.01" y1="0.28" x2="303.01" y2="100.13" gradientTransform="matrix(1, 0, 0, 1, -0.1, -0.39)" gradientUnits="userSpaceOnUse"><stop offset="0" stop-color="#50ab33"></stop><stop offset="1" stop-color="#076c31"></stop></linearGradient></defs><title>St2Golf</title><g id="Layer_2" data-name="Layer 2"><g id="Layer_1-2" data-name="Layer 1"><path class="logo__fill" d="M177,.11l-68.78,0c-1.23,0-1.15,1.14,0,1.63l.37.15a20.46,20.46,0,0,1,9.1,29.25c-6.61,11.55-20,32.35-25.11,40.25-1.62,2.51-.52,3.19,1.08,3.19h27c4.31,0,5.38,1.08,2.81,4.73l-.29.44-12.07,17c-1.68,2.39-1.49,3.13,1.1,3.13l64.71,0ZM0,94.57a5.16,5.16,0,0,0,5.16,5.17l33.07,0c3,0,3.57-.26,5.1-2.38,12.24-17,40.79-56.7,43.43-61.14,3.38-5.68,1.13-14.1-11.63-9.84A181.52,181.52,0,0,0,51.78,36.66l-.52.27c-2.37,1.2-2.16.29-1.31-1.28A191,191,0,0,1,60.1,19.18,47.11,47.11,0,0,1,85.38,2.09c2.28-.64,1.31-2-.89-2L5.23,0A5.18,5.18,0,0,0,.05,5.16Z"></path><path class="cls-golf-2" d="M177.34,0 L424.21,0.15 C426.494722,0.15 428.363549,2.34290123 428.46561,5.08376522 L428.47,5.32 L428.41,94.83 C428.41,97.6105556 426.604637,99.8712423 424.335594,99.9946905 L424.14,100 L177.28,99.85 L177.34,0 Z M225.83,26.5 C222.079379,28.520676 219.007943,31.6025473 217,35.36 C214.847254,39.5314427 213.777808,44.177169 213.89,48.87 C213.7622,53.6315284 214.831535,58.3489806 217,62.59 C219.040755,66.3711957 222.178353,69.4460417 226,71.41 C230.232111,73.5525786 234.927652,74.617405 239.67,74.51 C243.028245,74.5090716 246.378071,74.1740891 249.67,73.51 C252.383205,73.0004795 255.027826,72.1798473 257.551603,71.0648675 L258.18,70.78 L258.18,46.35 L238.57,46.35 L238.57,54 L248.37,54 L248.37,65 C245.669206,65.6768302 242.894282,66.0127774 240.11,66 C230.076667,66 225.06,60.2933333 225.06,48.88 C225.066667,37.68 229.873333,32.08 239.48,32.08 C241.908819,32.0560713 244.324836,32.4345242 246.63,33.2 C248.873495,34.0047847 250.995697,35.1118514 252.938162,36.4898689 L253.42,36.84 L256.91,29 C254.666122,27.0893372 252.041319,25.6780793 249.21,24.86 C245.956397,23.8522529 242.565929,23.3563337 239.16,23.39 C234.525384,23.2848594 229.939585,24.3547645 225.83,26.5 Z M277,26.5 C273.362898,28.5511052 270.415411,31.6343097 268.53,35.36 C266.454391,39.5552438 265.425085,44.190554 265.53,48.87 C265.431498,53.5712564 266.46018,58.2277543 268.53,62.45 C270.398088,66.2057969 273.348153,69.3160777 277,71.38 C285.100189,75.5265053 294.699811,75.5265053 302.8,71.38 C306.431651,69.3124049 309.358194,66.201211 311.2,62.45 C313.239969,58.2194708 314.247539,53.5654535 314.14,48.87 C314.253716,44.1964285 313.245553,39.5636786 311.2,35.36 C309.339241,31.6399456 306.415661,28.5562646 302.8,26.5 C294.699811,22.3534947 285.100189,22.3534947 277,26.5 Z M333.16,24 L322.23,24 L322.23,73.86 L355.42,73.89 L355.42,65 L333.16,65 L333.16,24 Z M395.18,24 L361.58,24 L361.58,73.86 L372.36,73.86 L372.36,52.86 L393.78,52.86 L393.78,44.18 L372.36,44.18 L372.36,32.61 L395.18,32.61 L395.18,24 Z M289.92,31.9299771 C294.12,31.9233333 297.396667,33.37 299.75,36.27 C302.11,39.1633333 303.29,43.3633333 303.29,48.87 C303.29,54.1990323 302.184901,58.3261915 299.974703,61.2514776 L299.75,61.54 L299.75,61.58 C297.2443,64.3743334 293.668243,65.9708801 289.915,65.9708801 C286.161757,65.9708801 282.5857,64.3743334 280.08,61.58 C277.733333,58.62 276.556667,54.3833333 276.549972,48.87 C276.543333,43.3566667 277.72,39.1566667 280.08,36.27 C282.44,33.3833333 285.72,31.9366667 289.92,31.9299771 Z" id="Combined-Shape" fill="url(#cls-golf-2)"></path></g></g></svg>