<svg class="logo__stod2-sport" width="155" height="28" viewBox="0 0 552 100" version="1.1" xmlns="http://www.w3.org/2000/svg" xmlns:xlink="http://www.w3.org/1999/xlink"> <title>St2Sport2</title> <desc>Created with Sketch.</desc> <defs> <linearGradient x1="49.9971794%" y1="-0.0100110121%" x2="49.9971794%" y2="100%" id="linearGradient-1"> <stop stop-color="#3C3C3C" offset="0%"></stop> <stop stop-color="#232323" offset="100%"></stop> </linearGradient> <linearGradient x1="50.0098361%" y1="0%" x2="50.0098361%" y2="100%" id="linearGradient-2"> <stop stop-color="#D4145A" offset="0%"></stop> <stop stop-color="#9E005D" offset="100%"></stop> </linearGradient> <linearGradient x1="50.0072411%" y1="0%" x2="50.0072411%" y2="100%" id="linearGradient-3"> <stop stop-color="#3C3C3C" offset="0%"></stop> <stop stop-color="#232323" offset="100%"></stop> </linearGradient> </defs> <g id="Desktop" stroke="none" stroke-width="1" fill="none" fill-rule="evenodd"> <g id="Logo" transform="translate(-97.000000, -608.000000)" fill-rule="nonzero"> <g id="St2Sport2" transform="translate(97.000000, 608.000000)"> <path class="logo__fill" d="M177.25,0.11 L108.37,0.11 C107.13,0.11 107.21,1.26 108.37,1.75 L108.74,1.9 C114.089496,4.30370766 118.151821,8.88546153 119.897635,14.4843048 C121.643449,20.0831481 120.905218,26.1617966 117.87,31.18 C111.26,42.75 97.87,63.59 92.75,71.51 C91.13,74.02 92.22,74.7 93.83,74.7 L120.91,74.7 C125.22,74.7 126.3,75.77 123.73,79.44 L123.44,79.87 L111.36,96.87 C109.68,99.26 109.87,100 112.47,100 L177.27,100 L177.25,0.11 Z M0,94.83 C0.0055024837,97.6830298 2.31697016,99.9944975 5.17,100 L38.29,100 C41.29,100 41.87,99.73 43.4,97.61 C55.64,80.61 84.21,40.8 86.85,36.35 C90.23,30.66 88,22.23 75.21,26.5 C67.1806589,29.3786192 59.3645621,32.8205088 51.82,36.8 L51.31,37.06 C48.93,38.27 49.14,37.36 49.98,35.79 C53.0874691,30.1196601 56.4784273,24.609353 60.14,19.28 C66.4428942,10.9205055 75.3467193,4.89432914 85.45,2.15 C87.73,1.51 86.77,0.149989813 84.56,0.149989813 L5.18,0.149989813 C2.33633797,0.144414606 0.0219958108,2.43641755 0,5.28 L0,94.83 Z" id="Shape" fill="url(#linearGradient-1)"></path> <path class="cls-sport" d="M482.33,0 L482.33,100 L177.33,100 L177.33,0 L482.33,0 Z M225.85,26.17 C223.138632,27.3162222 220.796031,29.1882267 219.08,31.58 C217.478505,33.8704275 216.635623,36.6054227 216.67,39.4 C216.5804,41.7543129 217.181785,44.0833764 218.4,46.1 C219.78984,48.088485 221.69454,49.6613315 223.91,50.65 C227.148228,52.1340407 230.562405,53.1992908 234.07,53.82 C236.845393,54.2809707 239.539795,55.1398115 242.07,56.37 C243.468931,57.0362632 244.35723,58.4505284 244.35,60 C244.391306,61.7479911 243.427304,63.3650261 241.87,64.16 C239.666801,65.2552663 237.216529,65.7584166 234.76,65.62 C229.33634,65.6685387 224.031322,64.0610986 219.550983,61.0188799 L219.12,60.72 L215.72,68.34 C218.2248,70.2475446 221.078295,71.6471159 224.12,72.46 C227.557323,73.4642873 231.118985,73.9793479 234.7,73.99 C241,73.99 245.916667,72.6566667 249.45,69.99 C252.905747,67.5060008 254.896915,63.4636686 254.76,59.21 C254.897054,55.7507366 253.364376,52.4361329 250.64,50.3 C247.893333,48.1 243.416667,46.3333333 237.21,45 C235.097113,44.5946042 233.020376,44.0194049 231,43.28 C229.829603,42.8960664 228.771782,42.2297768 227.92,41.34 C227.293071,40.5752109 226.966036,39.6083265 227,38.62 C226.9781,36.8120953 227.918765,35.1287999 229.47,34.2 C231.439356,33.0271691 233.710491,32.460255 236,32.57 C240.933223,32.5579864 245.729907,34.1617614 249.659915,37.1287649 L250.05,37.43 L253.45,29.81 C251.235807,27.9192221 248.640258,26.5276531 245.84,25.73 C242.624963,24.7315487 239.276489,24.2291091 235.91,24.24 C232.458212,24.168205 229.030146,24.8258757 225.85,26.17 Z M314.56,27.27 C311.02905,29.2629121 308.165809,32.2548769 306.33,35.87 C304.325215,39.9507211 303.33387,44.4546525 303.44,49 C303.333886,53.5742158 304.32486,58.1073213 306.33,62.22 C308.081695,65.7298579 310.803906,68.659254 314.168898,70.662934 L314.56,70.89 L314.56,70.86 C322.424748,74.9004537 331.755252,74.9004537 339.62,70.86 C343.147721,68.853467 345.990754,65.8327449 347.78,62.19 C349.760998,58.0806827 350.741055,53.5607708 350.64,49 C350.746078,44.4580082 349.765528,39.9563944 347.78,35.87 C345.973795,32.2570175 343.133234,29.263289 339.62,27.27 C331.752063,23.2427533 322.427937,23.2427533 314.56,27.27 Z M282.74,24.89 L260.74,24.89 L260.74,73.3 L271.35,73.3 L271.35,53.72 L282.74,53.72 C288.053333,53.72 292.203333,52.4166667 295.19,49.81 C298.198317,47.1654153 299.848853,43.3019104 299.68,39.3 C299.86264,35.29318 298.223173,31.4187437 295.22,28.76 C292.233333,26.18 288.073333,24.89 282.74,24.89 Z M378.79,24.89 L357.23,24.89 L357.23,73.3 L367.7,73.3 L367.7,53.79 L374.57,53.79 C375.890342,53.7452039 377.203546,54.0016892 378.41,54.54 C379.410962,55.0601652 380.18899,55.9215695 380.606176,56.9639265 L380.69,57.19 L386.88,73.3 L398.1,73.3 L392.25,58.32 C390.983333,54.9666667 388.92,52.9933333 386.06,52.4 C388.976024,51.5735981 391.542648,49.8180409 393.37,47.4 C395.101412,44.9849625 395.996798,42.0705719 395.92,39.1 C395.92,34.52 394.47,31.0066667 391.57,28.56 C388.67,26.1133333 384.41,24.89 378.79,24.89 Z M440.74,24.89 L399.66,24.89 L399.66,33.52 L414.83,33.52 L414.83,73.3 L425.57,73.3 L425.57,33.52 L440.74,33.52 L440.74,24.89 Z M327.105,32.5413073 C330.741536,32.5413073 334.209963,34.0726758 336.66,36.76 C338.953333,39.5533333 340.1,43.6333333 340.1,49 C340.1,54.3666667 338.953333,58.48 336.66,61.34 C334.224627,64.0530201 330.750754,65.6028458 327.105,65.6028458 C323.459246,65.6028458 319.985373,64.0530201 317.55,61.34 C315.263333,58.4466667 314.12,54.3333333 314.12,49 C314.12,43.6666667 315.263333,39.5866667 317.55,36.76 C320.000037,34.0726758 323.468464,32.5413073 327.105,32.5413073 Z M367.57,33.05 L377.22,33.05 C380.26,33.05 382.483333,33.56 383.89,34.58 C385.350801,35.7228057 386.142819,37.5207979 386,39.37 C386.144436,41.2223156 385.35243,43.0240357 383.89,44.17 C382.547273,45.1436364 380.460434,45.6525826 377.629483,45.6968388 L377.22,45.7 L367.57,45.7 L367.57,33.05 L377.22,33.05 Z M281.34,33.05 C286.866667,33.09 289.633333,35.1966667 289.640012,39.37 C289.646534,43.4598667 286.989557,45.5456987 281.669072,45.627496 L281.34,45.63 L271.34,45.63 L271.34,33.05 L281.34,33.05 Z" id="Combined-Shape" fill="url(#linearGradient-2)"></path> <path class="cls-sport" d="M546.2,0 C549.060835,0 551.38,2.319165 551.38,5.18 L551.38,5.18 L551.38,94.82 C551.38,97.680835 549.060835,100 546.2,100 L546.2,100 L482.33,100 L482.33,0 Z M516,25 C513.295584,24.9502949 510.624765,25.6050762 508.25,26.9 C506.035069,28.1179596 504.213743,29.9427553 503,32.16 C501.765139,34.4636562 501.14518,37.0468202 501.2,39.66 L501.2,39.66 L505.15,39.66 C505.026742,36.6674842 506.107192,33.7502694 508.15,31.56 C510.222606,29.4542911 513.087778,28.3212954 516.04,28.44 C518.767854,28.2816162 521.44171,29.2463722 523.44,31.11 C525.301296,33.0543532 526.274999,35.6822675 526.13,38.37 C526.087542,40.4683873 525.542283,42.5259663 524.54,44.37 C522.935369,47.1852556 521.020065,49.8116701 518.83,52.2 L518.83,52.2 L502.26,71 L502.26,74 L532.54,74 L532.54,70.65 L507.14,70.65 L520.58,55.38 C523.424578,52.3388567 525.91392,48.9839489 528,45.38 C529.302757,43.1299903 530.040502,40.5976393 530.15,38 C530.123333,33.9866667 528.866667,30.8166667 526.38,28.49 C523.893333,26.1633333 520.433333,25 516,25 Z" id="Combined-Shape" fill="url(#linearGradient-3)"></path></g></g></g></svg>