<svg class="logo__stod2" xmlns="http://www.w3.org/2000/svg" width="50" height="28" viewBox="0 0 75 42"> 
    <defs> 
        <linearGradient id="stod2-a-538856355" x1="50%" x2="50%" y1="0%" y2="100%"> 
            <stop offset="0%" stop-color="#3B3B3B"></stop> 
            <stop offset="100%" stop-color="#232323"></stop> 
        </linearGradient> 
    </defs> 
    <path class="logo__fill" fill="url(#stod2-a-538856355)" fill-rule="evenodd" d="M0 39.8247909C0 41.0254439.98241789 42 2.19077941 42H16.203297c1.2595421 0 1.5108977-.1134915 2.15868-1.0060077 5.1822589-7.1593546 17.2705106-23.8832684 18.3881024-25.7535301 1.429936-2.3930667.4741784-5.93779293-4.9289416-4.1404457-3.6714503 1.2270546-7.7777573 3.23402-9.8951541 4.3272061l-.2172946.1113652c-1.0064924.5093384-.9182193.1252747-.5589742-.5360945 1.0169246-1.795841 2.9867536-5.19137155 4.2982788-6.93990233 1.8101349-2.34850294 5.158006-5.69831794 10.7078022-7.20028604C37.1210941.5924415 36.7123626.00398682 35.7788071 0L2.19077941.00398682C.98241789.00398682 0 .97411309 0 2.17831001V39.8247909zM45.8459601.6877708l.1562167.06343474c4.2668929 1.85892141 6.7470121 7.29915918 3.8625305 12.31209846-2.7960302 4.8635663-8.4607598 13.6261543-10.6305855 16.956301-.6838049 1.0544697-.2203262 1.340812.4602688 1.340812l11.4559841-.0074421c1.8260061 0 2.2815492.452637 1.1928468 1.9935874l-.1228691.1840139-5.1085195 7.1537731C46.3990494 41.6888508 46.4787627 42 47.5784323 42h25.231145C74.0179388 42 75 41.0254439 75 39.8247909V2.17831001C75 .97411309 74.0179388.00398682 72.8095773.00398682L45.8535391 0c-.5233083 0-.4899607.48284824-.007579.6877708z"></path>
</svg>