<svg width="194" height="28" xmlns="http://www.w3.org/2000/svg" xmlns:xlink="http://www.w3.org/1999/xlink" viewBox="0 0 1080 158.29"><defs><style>.fj-cls-1{fill:url(#fj-linear-gradient);}.fj-cls-2{fill:url(#fj-linear-gradient-2);}</style><linearGradient id="fj-linear-gradient" x1="140.29" y1="0.08" x2="140.29" y2="158.21" gradientUnits="userSpaceOnUse"><stop offset="0" stop-color="#44403e"></stop><stop offset="1" stop-color="#2b2825"></stop></linearGradient><linearGradient id="fj-linear-gradient-2" x1="680.29" x2="680.29" y2="158.29" gradientUnits="userSpaceOnUse"><stop offset="0.01" stop-color="#009cd6"></stop><stop offset="1" stop-color="#007093"></stop></linearGradient></defs><g id="Layer_2" data-name="Layer 2"><g id="Layer_1-2" data-name="Layer 1"><path class="fj-cls-1 logo__fill" d="M280.58.09h-109c-2,0-1.83,1.82,0,2.59l.59.24c16,7,25.24,27.48,14.45,46.35-10.46,18.32-31.66,51.31-39.77,63.85-2.56,4-.83,5,1.72,5l42.86,0c6.83,0,8.53,1.7,4.46,7.5l-.46.69-19.11,26.94c-2.67,3.78-2.37,5,1.74,5H280.58ZM0,150a8.19,8.19,0,0,0,8.19,8.19H60.62c4.71,0,5.65-.42,8.07-3.79,19.39-26.95,64.61-89.92,68.79-97,5.35-9,1.78-22.36-18.44-15.59C105.31,46.49,90,54.05,82,58.16l-.82.42c-3.76,1.92-3.43.48-2.09-2C82.93,49.8,90.3,37,95.2,30.44A74.69,74.69,0,0,1,135.26,3.33c3.61-1,2.08-3.24-1.41-3.25H8.2A8.2,8.2,0,0,0,0,8.28Z"></path><path class="fj-cls-2 logo__fill" d="M1066.42,158.29c7.5,0,13.58-3.67,13.58-8.2V8.19c0-4.52-6.07-8.19-13.57-8.19H280.58V158.29ZM357.88,116.68v-77h51.91V53H374.53V70.83h33.1V84.24h-33.1v32.44Zm48.34,5.73a54.47,54.47,0,0,0,7.68.65q5.19,0,7-2.32c1.22-1.55,1.83-4.35,1.83-8.38V39.68h16.87v72.46q0,12.87-5.08,18.87t-17.3,6a71.26,71.26,0,0,1-11-1Zm64.29-9.57a32.35,32.35,0,0,1-13.08-13.79q-4.6-9-4.6-21t4.6-20.87a32.58,32.58,0,0,1,13.08-13.68,39.76,39.76,0,0,1,19.95-4.81q11.46,0,19.9,4.81a32.36,32.36,0,0,1,13,13.68q4.54,8.86,4.54,20.87t-4.54,21a32.13,32.13,0,0,1-13,13.79q-8.43,4.81-19.9,4.81A39.76,39.76,0,0,1,470.51,112.84Zm35.15-15.19q5.46-6.81,5.46-19.58t-5.46-19.46q-5.46-6.7-15.2-6.71t-15.19,6.71q-5.46,6.7-5.46,19.46t5.46,19.63q5.46,6.76,15.19,6.76T505.66,97.65ZM472.4,17.4h15V31.68h-15Zm20.77,0h15V31.68h-15Zm47.9,99.28v-77h16.87V103h34.39v13.73Zm70.46-1.35a38.34,38.34,0,0,1-13.36-6.54l5.41-12.12a42.37,42.37,0,0,0,24.87,7.79q7.37,0,11.3-2.32a7.24,7.24,0,0,0,4-6.55,6.42,6.42,0,0,0-3.62-5.78q-3.63-2.11-12.71-4.06a67,67,0,0,1-16.17-5,21.31,21.31,0,0,1-8.76-7.24,19.35,19.35,0,0,1-2.75-10.66,21.25,21.25,0,0,1,3.84-12.43,25.24,25.24,0,0,1,10.76-8.6,39.07,39.07,0,0,1,16-3.08,52.25,52.25,0,0,1,15.79,2.38,32.11,32.11,0,0,1,12.12,6.49l-5.41,12.11A36,36,0,0,0,630.4,51.9q-6.49,0-10.38,2.6a8,8,0,0,0-3.89,7,6.42,6.42,0,0,0,1.46,4.32,11.93,11.93,0,0,0,4.92,3.08,61,61,0,0,0,9.84,2.65q14.8,3.26,21.36,8.44t6.54,14.17a20.29,20.29,0,0,1-8.44,17.14q-8.43,6.33-23.46,6.32A60.37,60.37,0,0,1,611.53,115.33Zm131.67,1.35H722.87L689.34,81.1v35.58H672.47v-77h16.87V73.53l32.34-33.85h20.11L706,76.45Zm70.07-77-31.9,47.15v29.85H764.5V86.73L732.71,39.68h19.14l21,32.88L794,39.68Zm2.06,77v-77H832.2V103h34.39v13.73Zm61.53-77H906.6q12.66,0,21.74,4.54a31.81,31.81,0,0,1,13.9,13.2q4.8,8.65,4.81,20.65t-4.76,20.77a31.7,31.7,0,0,1-13.84,13.24q-9.09,4.61-21.85,4.6H876.86Zm28.66,63.38q24.66,0,24.66-25,0-24.75-24.66-24.76H893.73v49.75Zm111.39,13.62-7.35-17.09h-36l-7.36,17.09h-17l35.37-77H998.2l35.37,77ZM979.17,86.73H1004L991.6,57.85Z"></path></g></g></svg>